<svg width="30" height="30" viewBox="0 0 30 30" fill="none" xmlns="http://www.w3.org/2000/svg">
<path d="M8.71839 6.04573L6.04572 8.7184L17.7562 20.4289L20.4288 17.7562L8.71839 6.04573Z" fill="white"/>
<path d="M6.04572 8.7184L8.71839 6.04573L4.45444 4.45445L6.04572 8.7184Z" fill="white"/>
<path d="M22.9614 14.0526L14.0525 22.9614L15.2236 24.1325L24.1325 15.2236L22.9614 14.0526Z" fill="white"/>
<path d="M20.5689 18.7872L18.7871 20.5689L22.8858 24.6676L24.6676 22.8858L20.5689 18.7872Z" fill="white"/>
<path d="M25.2405 25.2405C25.9785 24.5025 26.1836 23.511 25.6985 23.0259C25.2135 22.5408 24.222 22.7459 23.4839 23.4839C22.7459 24.222 22.5408 25.2135 23.0259 25.6986C23.5109 26.1836 24.5025 25.9785 25.2405 25.2405Z" fill="white"/>
</svg>
